<svg width="52" height="52" viewBox="0 0 52 52" fill="none" xmlns="http://www.w3.org/2000/svg">
<path fill-rule="evenodd" clip-rule="evenodd" d="M44.5556 44.5556H36.8391V31.4126C36.8391 27.8092 35.4699 25.7955 32.6177 25.7955C29.515 25.7955 27.8939 27.8911 27.8939 31.4126V44.5556H20.4574V19.5185H27.8939V22.891C27.8939 22.891 30.1299 18.7536 35.443 18.7536C40.7535 18.7536 44.5556 21.9966 44.5556 28.7037V44.5556ZM11.5856 16.2401C9.0526 16.2401 7 14.1714 7 11.6201C7 9.0687 9.0526 7 11.5856 7C14.1187 7 16.1701 9.0687 16.1701 11.6201C16.1701 14.1714 14.1187 16.2401 11.5856 16.2401ZM7.74573 44.5556H15.5001V19.5185H7.74573V44.5556Z" fill="#007EBB"/>
</svg>
