<svg width="296" height="295" viewBox="0 0 296 295" fill="none" xmlns="http://www.w3.org/2000/svg">
<path fill-rule="evenodd" clip-rule="evenodd" d="M159.314 4.68631C153.065 -1.5621 142.935 -1.5621 136.686 4.68631L130.317 11.0555L121.928 6.21231C114.276 1.79404 104.49 4.41605 100.072 12.0687L95.3781 20.1989L86.4549 17.8079C77.9194 15.5208 69.146 20.5862 66.8589 29.1216L64.4549 38.0934H55C46.1635 38.0934 39 45.2568 39 54.0934V63.5054L30.0869 65.8936C21.5515 68.1807 16.4861 76.9541 18.7732 85.4895L21.1642 94.4128L13.034 99.1068C5.38138 103.525 2.75937 113.311 7.17764 120.963L12.0208 129.352L5.31375 136.059C-0.934662 142.307 -0.934662 152.438 5.31375 158.686L11.7223 165.095L7.17758 172.967C2.75931 180.619 5.38132 190.405 13.034 194.823L21.1966 199.536L18.7732 208.58C16.4862 217.115 21.5515 225.889 30.0869 228.176L39 230.564V240.093C39 248.93 46.1635 256.093 55 256.093H64.4864L66.8589 264.948C69.146 273.483 77.9193 278.549 86.4548 276.262L95.448 273.852L100.072 281.861C104.49 289.514 114.276 292.136 121.928 287.717L129.8 283.173L136.686 290.059C142.935 296.307 153.065 296.307 159.314 290.059L166.149 283.224L173.932 287.717C181.585 292.136 191.37 289.514 195.788 281.861L200.431 273.819L209.545 276.262C218.081 278.549 226.854 273.483 229.141 264.948L231.514 256.093H241C249.837 256.093 257 248.93 257 240.093V230.564L265.913 228.176C274.449 225.889 279.514 217.115 277.227 208.58L274.785 199.466L282.826 194.823C290.479 190.405 293.101 180.619 288.683 172.967L284.189 165.183L290.686 158.686C296.935 152.438 296.935 142.307 290.686 136.059L283.891 129.263L288.683 120.963C293.101 113.31 290.479 103.525 282.826 99.1068L274.817 94.4826L277.227 85.4895C279.514 76.9541 274.449 68.1806 265.913 65.8936L257 63.5053V54.0934C257 45.2568 249.837 38.0934 241 38.0934H231.545L229.141 29.1217C226.854 20.5862 218.081 15.5209 209.545 17.808L200.501 20.2314L195.788 12.0688C191.37 4.41605 181.585 1.79404 173.932 6.21231L165.632 11.0044L159.314 4.68631Z" fill="#FF003D"/>
</svg>
